<svg xmlns="http://www.w3.org/2000/svg" viewBox="0 0 64 64" width="64" height="64" role="img" aria-label="netcup"><title>netcup</title><circle cx="32" cy="32" r="32" fill="#056473"/><g transform="translate(16 16) scale(1.3333)" fill="#FFFFFF"><path d="M5.25 0A5.239 5.239 0 0 0 0 5.25v13.5A5.239 5.239 0 0 0 5.25 24h13.5A5.239 5.239 0 0 0 24 18.75V5.25A5.239 5.239 0 0 0 18.75 0H5.25zm-.045 5.102h9.482c1.745 0 2.631.907 2.631 2.753v8.352h1.477v2.691h-4.666V8.58c0-.514-.298-.785-.889-.785H9.873v11.103H6.682V7.795H5.205V5.102z"/></g></svg>